<svg width="180" height="59" viewBox="0 0 180 59" fill="none" xmlns="http://www.w3.org/2000/svg">
<g filter="url(#filter0_d_25_321)">
<rect width="180" height="56" rx="10" fill="#1C9DC9"/>
<path d="M52.7737 35.24C51.6537 35.24 50.5803 35.0933 49.5537 34.8C48.527 34.4933 47.7003 34.1 47.0737 33.62L48.1737 31.18C48.7737 31.6067 49.4803 31.96 50.2937 32.24C51.1203 32.5067 51.9537 32.64 52.7937 32.64C53.4337 32.64 53.947 32.58 54.3337 32.46C54.7337 32.3267 55.027 32.1467 55.2137 31.92C55.4003 31.6933 55.4937 31.4333 55.4937 31.14C55.4937 30.7667 55.347 30.4733 55.0537 30.26C54.7603 30.0333 54.3737 29.8533 53.8937 29.72C53.4137 29.5733 52.8803 29.44 52.2937 29.32C51.7203 29.1867 51.1403 29.0267 50.5537 28.84C49.9803 28.6533 49.4537 28.4133 48.9737 28.12C48.4937 27.8267 48.1003 27.44 47.7937 26.96C47.5003 26.48 47.3537 25.8667 47.3537 25.12C47.3537 24.32 47.567 23.5933 47.9937 22.94C48.4337 22.2733 49.087 21.7467 49.9537 21.36C50.8337 20.96 51.9337 20.76 53.2537 20.76C54.1337 20.76 55.0003 20.8667 55.8537 21.08C56.707 21.28 57.4603 21.5867 58.1137 22L57.1137 24.46C56.4603 24.0867 55.807 23.8133 55.1537 23.64C54.5003 23.4533 53.8603 23.36 53.2337 23.36C52.607 23.36 52.0937 23.4333 51.6937 23.58C51.2937 23.7267 51.007 23.92 50.8337 24.16C50.6603 24.3867 50.5737 24.6533 50.5737 24.96C50.5737 25.32 50.7203 25.6133 51.0137 25.84C51.307 26.0533 51.6937 26.2267 52.1737 26.36C52.6537 26.4933 53.1803 26.6267 53.7537 26.76C54.3403 26.8933 54.9203 27.0467 55.4937 27.22C56.0803 27.3933 56.6137 27.6267 57.0937 27.92C57.5737 28.2133 57.9603 28.6 58.2537 29.08C58.5603 29.56 58.7137 30.1667 58.7137 30.9C58.7137 31.6867 58.4937 32.4067 58.0537 33.06C57.6137 33.7133 56.9537 34.24 56.0737 34.64C55.207 35.04 54.107 35.24 52.7737 35.24ZM60.9276 35V21H64.1676V35H60.9276ZM74.2501 35.24C73.1434 35.24 72.1234 35.0667 71.1901 34.72C70.2701 34.36 69.4634 33.8533 68.7701 33.2C68.0901 32.5467 67.5567 31.78 67.1701 30.9C66.7967 30.02 66.6101 29.0533 66.6101 28C66.6101 26.9467 66.7967 25.98 67.1701 25.1C67.5567 24.22 68.0967 23.4533 68.7901 22.8C69.4834 22.1467 70.2967 21.6467 71.2301 21.3C72.1634 20.94 73.1901 20.76 74.3101 20.76C75.5501 20.76 76.6634 20.9667 77.6501 21.38C78.6501 21.7933 79.4901 22.3933 80.1701 23.18L78.0901 25.1C77.5834 24.5667 77.0301 24.1733 76.4301 23.92C75.8301 23.6533 75.1767 23.52 74.4701 23.52C73.7901 23.52 73.1701 23.6267 72.6101 23.84C72.0501 24.0533 71.5634 24.36 71.1501 24.76C70.7501 25.16 70.4367 25.6333 70.2101 26.18C69.9967 26.7267 69.8901 27.3333 69.8901 28C69.8901 28.6533 69.9967 29.2533 70.2101 29.8C70.4367 30.3467 70.7501 30.8267 71.1501 31.24C71.5634 31.64 72.0434 31.9467 72.5901 32.16C73.1501 32.3733 73.7634 32.48 74.4301 32.48C75.0701 32.48 75.6901 32.38 76.2901 32.18C76.9034 31.9667 77.4967 31.6133 78.0701 31.12L79.9101 33.46C79.1501 34.0333 78.2634 34.4733 77.2501 34.78C76.2501 35.0867 75.2501 35.24 74.2501 35.24ZM76.9501 33.04V27.78H79.9101V33.46L76.9501 33.04ZM82.9198 35V21H85.5998L93.8598 31.08H92.5598V21H95.7598V35H93.0998L84.8198 24.92H86.1198V35H82.9198ZM110.956 35.24C108.97 35.24 107.416 34.6867 106.296 33.58C105.176 32.4733 104.616 30.8933 104.616 28.84V21H107.856V28.72C107.856 30.0533 108.13 31.0133 108.676 31.6C109.223 32.1867 109.99 32.48 110.976 32.48C111.963 32.48 112.73 32.1867 113.276 31.6C113.823 31.0133 114.096 30.0533 114.096 28.72V21H117.296V28.84C117.296 30.8933 116.736 32.4733 115.616 33.58C114.496 34.6867 112.943 35.24 110.956 35.24ZM120.498 35V21H126.558C127.811 21 128.891 21.2067 129.798 21.62C130.705 22.02 131.405 22.6 131.898 23.36C132.391 24.12 132.638 25.0267 132.638 26.08C132.638 27.12 132.391 28.02 131.898 28.78C131.405 29.54 130.705 30.1267 129.798 30.54C128.891 30.94 127.811 31.14 126.558 31.14H122.298L123.738 29.68V35H120.498ZM123.738 30.04L122.298 28.5H126.378C127.378 28.5 128.125 28.2867 128.618 27.86C129.111 27.4333 129.358 26.84 129.358 26.08C129.358 25.3067 129.111 24.7067 128.618 24.28C128.125 23.8533 127.378 23.64 126.378 23.64H122.298L123.738 22.1V30.04Z" fill="white"/>
</g>
<defs>
<filter id="filter0_d_25_321" x="0" y="0" width="180" height="59" filterUnits="userSpaceOnUse" color-interpolation-filters="sRGB">
<feFlood flood-opacity="0" result="BackgroundImageFix"/>
<feColorMatrix in="SourceAlpha" type="matrix" values="0 0 0 0 0 0 0 0 0 0 0 0 0 0 0 0 0 0 127 0" result="hardAlpha"/>
<feOffset dy="3"/>
<feComposite in2="hardAlpha" operator="out"/>
<feColorMatrix type="matrix" values="0 0 0 0 0 0 0 0 0 0 0 0 0 0 0 0 0 0 1 0"/>
<feBlend mode="normal" in2="BackgroundImageFix" result="effect1_dropShadow_25_321"/>
<feBlend mode="normal" in="SourceGraphic" in2="effect1_dropShadow_25_321" result="shape"/>
</filter>
</defs>
</svg>
