<svg width="32" height="32" viewBox="0 0 32 32" fill="none" xmlns="http://www.w3.org/2000/svg">
<g id="Ic">
<path id="Subtract" fill-rule="evenodd" clip-rule="evenodd" d="M16 29.3333C23.3638 29.3333 29.3333 23.3638 29.3333 16C29.3333 8.63616 23.3638 2.66663 16 2.66663C8.63616 2.66663 2.66663 8.63616 2.66663 16C2.66663 23.3638 8.63616 29.3333 16 29.3333ZM18.1584 6.67178C17.5779 6.67256 16.9963 6.67335 16.4128 6.68238L16.4134 6.68296C16.398 8.68787 16.399 10.6933 16.4 12.7011C16.4005 13.8234 16.4011 14.9464 16.3988 16.0705C16.3963 16.4475 16.3966 16.824 16.397 17.2003C16.3981 18.2129 16.3991 19.2242 16.3434 20.2385C16.3353 20.5199 16.1941 20.7674 16.0569 21.0077C16.046 21.0269 16.0351 21.046 16.0243 21.065C15.5716 21.803 14.7392 22.307 13.8706 22.3163C12.5605 22.4324 11.3331 21.3596 11.1482 20.0833C11.1468 20.0208 11.1446 19.9578 11.1424 19.8946C11.1297 19.5346 11.1168 19.1675 11.2538 18.832C11.4487 18.2743 11.8215 17.7961 12.3149 17.4711C12.9892 17.0027 13.891 16.9327 14.6628 17.1824C14.6628 16.6904 14.6712 16.1986 14.6796 15.7068C14.6909 15.0471 14.7021 14.3874 14.6931 13.7273C13.0038 13.4111 11.1995 13.9455 9.91154 15.0672C8.77521 16.0303 8.04312 17.446 7.90312 18.926C7.88906 19.3117 7.89218 19.6978 7.91246 20.0833C8.07346 21.9033 9.17887 23.599 10.7498 24.5254C11.6977 25.0842 12.809 25.3875 13.9214 25.324C15.735 25.2936 17.5007 24.3212 18.518 22.8296C19.1504 21.9336 19.5091 20.8515 19.5698 19.7642C19.5856 18.2705 19.5846 16.774 19.5836 15.2758C19.5831 14.5038 19.5826 13.7313 19.5844 12.9585C19.9886 13.2227 20.4016 13.4811 20.845 13.6818C21.8629 14.1648 22.9899 14.3981 24.1116 14.4349V11.303C22.9146 11.1694 21.6844 10.7745 20.8146 9.91171C19.9431 9.06996 19.515 7.85721 19.4537 6.66663C19.0223 6.67061 18.5906 6.67119 18.1584 6.67178Z" fill="#02455C"/>
</g>
</svg>
